<mxfile host="app.diagrams.net" agent="Mozilla/5.0 (Windows NT 6.1; Win64; x64) AppleWebKit/537.36 (KHTML, like Gecko) Chrome/109.0.0.0 Safari/537.36" version="24.9.1">
  <diagram name="Page-1" id="y7_eG7kTRUDAu-H_uCaI">
    <mxGraphModel dx="831" dy="577" grid="1" gridSize="10" guides="1" tooltips="1" connect="1" arrows="1" fold="1" page="1" pageScale="1" pageWidth="850" pageHeight="1100" math="1" shadow="0">
      <root>
        <mxCell id="0" />
        <mxCell id="1" parent="0" />
        <mxCell id="mtkCHT9CVsyszuc56fVH-1" value="" style="endArrow=blockThin;html=1;rounded=0;strokeWidth=2;endFill=1;" parent="1" edge="1">
          <mxGeometry width="50" height="50" relative="1" as="geometry">
            <mxPoint x="120" y="240" as="sourcePoint" />
            <mxPoint x="700" y="240" as="targetPoint" />
          </mxGeometry>
        </mxCell>
        <mxCell id="mtkCHT9CVsyszuc56fVH-2" value="" style="endArrow=none;html=1;rounded=0;strokeWidth=3;fillColor=#cdeb8b;strokeColor=#B9E0A5;" parent="1" edge="1">
          <mxGeometry width="50" height="50" relative="1" as="geometry">
            <mxPoint x="160" y="200" as="sourcePoint" />
            <mxPoint x="160" y="80" as="targetPoint" />
          </mxGeometry>
        </mxCell>
        <mxCell id="mtkCHT9CVsyszuc56fVH-16" value="" style="endArrow=none;html=1;rounded=0;strokeWidth=3;fillColor=#008a00;strokeColor=#006600;entryX=1;entryY=1;entryDx=0;entryDy=0;" parent="1" edge="1">
          <mxGeometry width="50" height="50" relative="1" as="geometry">
            <mxPoint x="320" y="200" as="sourcePoint" />
            <mxPoint x="159" y="81" as="targetPoint" />
          </mxGeometry>
        </mxCell>
        <mxCell id="mtkCHT9CVsyszuc56fVH-17" value="" style="endArrow=none;html=1;rounded=0;strokeWidth=3;fillColor=#cdeb8b;strokeColor=#B9E0A5;" parent="1" edge="1">
          <mxGeometry width="50" height="50" relative="1" as="geometry">
            <mxPoint x="320" y="200" as="sourcePoint" />
            <mxPoint x="320" y="80" as="targetPoint" />
          </mxGeometry>
        </mxCell>
        <mxCell id="mtkCHT9CVsyszuc56fVH-20" value="" style="endArrow=none;html=1;rounded=0;strokeWidth=3;fillColor=#cdeb8b;strokeColor=#B9E0A5;" parent="1" edge="1">
          <mxGeometry width="50" height="50" relative="1" as="geometry">
            <mxPoint x="480" y="200" as="sourcePoint" />
            <mxPoint x="480" y="80" as="targetPoint" />
          </mxGeometry>
        </mxCell>
        <mxCell id="mtkCHT9CVsyszuc56fVH-23" value="" style="endArrow=none;html=1;rounded=0;dashed=1;strokeColor=#CCCCCC;" parent="1" edge="1">
          <mxGeometry width="50" height="50" relative="1" as="geometry">
            <mxPoint x="320" y="280" as="sourcePoint" />
            <mxPoint x="320" y="40" as="targetPoint" />
          </mxGeometry>
        </mxCell>
        <mxCell id="mtkCHT9CVsyszuc56fVH-24" value="" style="endArrow=none;html=1;rounded=0;dashed=1;strokeColor=#CCCCCC;" parent="1" edge="1">
          <mxGeometry width="50" height="50" relative="1" as="geometry">
            <mxPoint x="480" y="280" as="sourcePoint" />
            <mxPoint x="480" y="40" as="targetPoint" />
          </mxGeometry>
        </mxCell>
        <mxCell id="mtkCHT9CVsyszuc56fVH-25" value="" style="endArrow=none;html=1;rounded=0;dashed=1;strokeColor=#CCCCCC;" parent="1" edge="1">
          <mxGeometry width="50" height="50" relative="1" as="geometry">
            <mxPoint x="640" y="280" as="sourcePoint" />
            <mxPoint x="640" y="40" as="targetPoint" />
          </mxGeometry>
        </mxCell>
        <mxCell id="mtkCHT9CVsyszuc56fVH-26" value="" style="endArrow=none;html=1;rounded=0;dashed=1;strokeColor=#EA6B66;" parent="1" edge="1">
          <mxGeometry width="50" height="50" relative="1" as="geometry">
            <mxPoint x="680" y="80" as="sourcePoint" />
            <mxPoint x="120" y="80" as="targetPoint" />
          </mxGeometry>
        </mxCell>
        <mxCell id="mtkCHT9CVsyszuc56fVH-27" value="" style="endArrow=none;html=1;rounded=0;dashed=1;strokeColor=#FFB570;" parent="1" edge="1">
          <mxGeometry width="50" height="50" relative="1" as="geometry">
            <mxPoint x="680" y="200" as="sourcePoint" />
            <mxPoint x="120" y="200" as="targetPoint" />
          </mxGeometry>
        </mxCell>
        <mxCell id="mtkCHT9CVsyszuc56fVH-29" value="&lt;font color=&quot;#ea6b66&quot; style=&quot;font-size: 18px;&quot;&gt;&lt;b&gt;$$V_t$$&lt;/b&gt;&lt;/font&gt;" style="text;html=1;align=center;verticalAlign=middle;whiteSpace=wrap;rounded=0;" parent="1" vertex="1">
          <mxGeometry x="96" y="51" width="60" height="30" as="geometry" />
        </mxCell>
        <mxCell id="mtkCHT9CVsyszuc56fVH-30" value="&lt;font color=&quot;#ffb570&quot; style=&quot;font-size: 18px;&quot;&gt;&lt;b&gt;$$V_b$$&lt;/b&gt;&lt;/font&gt;" style="text;html=1;align=center;verticalAlign=middle;whiteSpace=wrap;rounded=0;" parent="1" vertex="1">
          <mxGeometry x="96" y="171" width="60" height="30" as="geometry" />
        </mxCell>
        <mxCell id="mtkCHT9CVsyszuc56fVH-31" value="&lt;font color=&quot;#b5739d&quot; style=&quot;font-size: 18px;&quot;&gt;&lt;b&gt;$$0$$&lt;/b&gt;&lt;/font&gt;" style="text;html=1;align=center;verticalAlign=middle;whiteSpace=wrap;rounded=0;" parent="1" vertex="1">
          <mxGeometry x="140" y="240" width="60" height="30" as="geometry" />
        </mxCell>
        <mxCell id="WyMvm3htuuCfXiTPPOX8-1" value="&lt;font style=&quot;font-size: 16px;&quot;&gt;$$t$$&lt;/font&gt;" style="text;html=1;align=center;verticalAlign=middle;whiteSpace=wrap;rounded=0;" parent="1" vertex="1">
          <mxGeometry x="660" y="244" width="60" height="30" as="geometry" />
        </mxCell>
        <mxCell id="dp8IApP3J8ASNLI6Vnsi-2" value="" style="endArrow=none;html=1;rounded=0;strokeWidth=3;fillColor=#008a00;strokeColor=#006600;entryX=1;entryY=1;entryDx=0;entryDy=0;" edge="1" parent="1">
          <mxGeometry width="50" height="50" relative="1" as="geometry">
            <mxPoint x="481" y="200" as="sourcePoint" />
            <mxPoint x="320" y="81" as="targetPoint" />
          </mxGeometry>
        </mxCell>
        <mxCell id="dp8IApP3J8ASNLI6Vnsi-3" value="" style="endArrow=none;html=1;rounded=0;strokeWidth=3;fillColor=#008a00;strokeColor=#006600;entryX=1;entryY=1;entryDx=0;entryDy=0;" edge="1" parent="1">
          <mxGeometry width="50" height="50" relative="1" as="geometry">
            <mxPoint x="641" y="200" as="sourcePoint" />
            <mxPoint x="480" y="81" as="targetPoint" />
          </mxGeometry>
        </mxCell>
        <mxCell id="dp8IApP3J8ASNLI6Vnsi-4" value="" style="endArrow=none;html=1;rounded=0;dashed=1;strokeColor=#CCCCCC;" edge="1" parent="1">
          <mxGeometry width="50" height="50" relative="1" as="geometry">
            <mxPoint x="160" y="280" as="sourcePoint" />
            <mxPoint x="160" y="40" as="targetPoint" />
          </mxGeometry>
        </mxCell>
        <mxCell id="dp8IApP3J8ASNLI6Vnsi-5" value="&lt;font color=&quot;#b5739d&quot; style=&quot;font-size: 18px;&quot;&gt;&lt;b&gt;$$\Delta t$$&lt;/b&gt;&lt;/font&gt;" style="text;html=1;align=center;verticalAlign=middle;whiteSpace=wrap;rounded=0;" vertex="1" parent="1">
          <mxGeometry x="310" y="240" width="60" height="30" as="geometry" />
        </mxCell>
        <mxCell id="dp8IApP3J8ASNLI6Vnsi-6" value="&lt;font color=&quot;#b5739d&quot; style=&quot;font-size: 18px;&quot;&gt;&lt;b&gt;$$2\Delta t$$&lt;/b&gt;&lt;/font&gt;" style="text;html=1;align=center;verticalAlign=middle;whiteSpace=wrap;rounded=0;" vertex="1" parent="1">
          <mxGeometry x="470" y="239" width="60" height="30" as="geometry" />
        </mxCell>
        <mxCell id="dp8IApP3J8ASNLI6Vnsi-7" value="&lt;font color=&quot;#b5739d&quot; style=&quot;font-size: 18px;&quot;&gt;&lt;b&gt;$$3\Delta t$$&lt;/b&gt;&lt;/font&gt;" style="text;html=1;align=center;verticalAlign=middle;whiteSpace=wrap;rounded=0;" vertex="1" parent="1">
          <mxGeometry x="629" y="237" width="60" height="30" as="geometry" />
        </mxCell>
      </root>
    </mxGraphModel>
  </diagram>
</mxfile>
